<?xml version="1.0" standalone="no"?>
<!DOCTYPE svg PUBLIC "-//W3C//DTD SVG 20010904//EN"
 "http://www.w3.org/TR/2001/REC-SVG-20010904/DTD/svg10.dtd">
<svg version="1.0" xmlns="http://www.w3.org/2000/svg"
 width="1552.000000pt" height="688.000000pt" viewBox="0 0 1552.000000 688.000000"
 preserveAspectRatio="xMidYMid meet">

<g transform="translate(0.000000,688.000000) scale(0.100000,-0.100000)"
fill="#000000" stroke="none">
<path d="M11439 6594 c-160 -164 -470 -305 -1054 -479 -607 -181 -796 -249
-1060 -378 -479 -236 -811 -480 -1009 -744 -112 -149 -258 -464 -451 -978 -13
-33 -33 -104 -46 -158 -13 -53 -24 -95 -26 -93 -5 4 53 438 72 546 52 288 127
553 186 659 17 29 29 55 26 57 -2 2 -43 -23 -91 -57 -360 -249 -653 -548 -839
-854 -154 -255 -337 -654 -458 -1000 -21 -60 -38 -105 -39 -100 0 21 52 304
81 438 64 294 124 484 200 635 25 50 44 92 42 92 -2 0 -48 -33 -101 -74 -235
-178 -481 -436 -649 -683 -46 -67 -134 -206 -196 -311 -63 -104 -156 -244
-208 -311 -52 -68 -114 -148 -137 -179 -54 -70 -84 -100 -57 -57 156 249 211
381 221 525 l5 75 -23 -29 c-13 -17 -62 -82 -109 -145 -307 -411 -705 -749
-1214 -1031 -715 -395 -1817 -728 -2965 -895 -488 -71 -558 -78 -830 -80 -285
-2 -317 -8 -373 -74 -74 -88 14 -161 192 -161 238 0 940 74 1381 145 532 86
1391 277 1760 391 992 307 1925 675 2735 1081 752 376 1272 692 1870 1138 415
309 669 527 1005 863 124 124 216 215 204 201 -11 -13 -58 -69 -104 -124 -348
-413 -698 -758 -1075 -1061 -719 -576 -1507 -1043 -2400 -1421 -454 -192 -713
-282 -1440 -498 -490 -145 -796 -245 -789 -256 3 -5 20 -9 38 -9 55 0 256 -40
334 -66 40 -13 130 -52 200 -85 259 -124 460 -190 687 -226 151 -24 509 -24
650 0 106 18 210 45 203 52 -3 3 -81 11 -174 19 -270 23 -425 63 -643 167
-128 61 -297 167 -340 213 l-25 26 50 -15 c306 -94 845 -192 1189 -216 446
-30 881 49 1195 217 97 52 283 174 276 181 -3 3 -20 0 -38 -6 -144 -47 -565
-53 -772 -11 -159 31 -326 89 -489 169 -199 97 -206 105 -63 70 214 -52 359
-64 756 -63 317 0 371 2 500 22 255 40 476 96 700 178 166 61 504 235 668 343
239 157 641 456 629 467 -2 2 -61 -14 -133 -36 -186 -58 -304 -87 -445 -110
-172 -27 -424 -43 -539 -34 l-95 8 55 8 c329 52 595 138 922 297 337 163 611
362 896 649 141 142 367 400 358 409 -2 2 -39 -14 -82 -36 -117 -58 -278 -107
-439 -132 -92 -14 -388 -15 -455 -2 -44 9 -44 10 44 17 101 9 282 45 378 74
261 82 530 236 698 402 116 114 376 516 573 885 218 410 355 754 458 1152 36
140 93 442 86 450 -2 1 -23 -18 -48 -43z"/>
<path d="M14348 2562 l-188 -2 0 -925 0 -925 195 0 195 0 0 924 c0 509 -3 926
-7 928 -5 2 -92 2 -195 0z"/>
<path d="M10125 2485 c-256 -48 -453 -191 -574 -416 -72 -133 -105 -253 -117
-424 -12 -186 21 -363 98 -524 42 -88 62 -116 131 -186 135 -136 289 -210 487
-235 52 -6 105 -16 117 -20 13 -5 104 -63 204 -129 197 -131 376 -227 483
-260 57 -18 83 -20 150 -15 124 10 116 3 146 148 l26 126 -40 11 c-87 21 -234
73 -291 102 -90 45 -234 127 -240 137 -3 4 15 20 40 34 173 102 301 283 362
511 24 90 26 117 26 275 0 158 -2 185 -26 274 -15 55 -47 141 -72 192 -101
208 -316 365 -555 403 -87 14 -269 12 -355 -4z m336 -329 c66 -31 146 -111
182 -182 14 -27 36 -83 49 -124 20 -67 23 -93 22 -240 -1 -135 -5 -179 -22
-241 -46 -169 -141 -294 -257 -339 -84 -32 -216 -33 -298 -1 -121 47 -220 175
-264 341 -25 92 -25 349 0 440 40 147 122 273 213 326 75 44 120 54 224 51 78
-3 105 -9 151 -31z"/>
<path d="M11352 1523 c4 -424 6 -452 26 -528 53 -191 160 -287 352 -317 51 -8
85 -7 154 5 113 20 198 62 270 132 31 30 57 55 59 55 3 0 7 -29 11 -65 10
-102 -3 -95 174 -95 l155 0 -6 173 c-4 94 -7 378 -7 630 l0 457 -190 0 -190 0
0 -388 c0 -449 -2 -464 -73 -529 -84 -78 -210 -80 -283 -5 -61 63 -64 89 -64
529 l0 393 -196 0 -196 0 4 -447z"/>
<path d="M12679 1893 c43 -114 144 -372 303 -772 l141 -353 -21 -44 c-49 -100
-166 -193 -291 -233 -39 -12 -71 -28 -71 -34 0 -17 91 -311 98 -319 12 -11
165 46 247 92 108 61 233 186 310 310 84 136 238 492 435 1010 49 128 142 371
155 403 7 16 -5 17 -201 15 l-209 -3 -23 -80 c-13 -44 -41 -145 -63 -225 -75
-274 -153 -529 -161 -524 -8 5 -9 10 -73 239 -24 88 -75 257 -112 375 l-68
215 -212 3 -213 2 29 -77z"/>
<path d="M14955 1146 c-46 -20 -94 -64 -118 -110 -28 -54 -30 -165 -3 -216 19
-37 75 -100 87 -100 4 0 13 16 20 35 7 19 15 35 19 35 3 0 15 -23 27 -50 l22
-50 48 0 c123 1 223 101 223 223 0 104 -50 188 -135 228 -47 22 -145 25 -190
5z"/>
</g>
</svg>
