<?xml version="1.0" standalone="no"?>
<!DOCTYPE svg PUBLIC "-//W3C//DTD SVG 20010904//EN"
 "http://www.w3.org/TR/2001/REC-SVG-20010904/DTD/svg10.dtd">
<svg version="1.0" xmlns="http://www.w3.org/2000/svg"
 width="372.000000pt" height="164.000000pt" viewBox="0 0 372.000000 164.000000"
 preserveAspectRatio="xMidYMid meet">

<g transform="translate(0.000000,164.000000) scale(0.100000,-0.100000)"
fill="#000000" stroke="none">
<path d="M2692 1540 c-24 -15 -96 -45 -160 -65 -266 -84 -362 -127 -454 -199
-71 -56 -107 -109 -153 -222 -58 -141 -64 -135 -29 30 8 38 19 77 25 88 14 26
3 23 -52 -18 -94 -69 -153 -152 -231 -323 -36 -79 -39 -82 -32 -41 6 41 31
130 49 173 28 67 -129 -90 -187 -188 -23 -38 -53 -83 -67 -100 -23 -29 -24
-29 -17 -5 4 14 10 36 12 50 l5 25 -21 -25 c-12 -14 -37 -45 -57 -69 -49 -59
-179 -154 -285 -207 -125 -63 -328 -127 -513 -163 -175 -34 -333 -53 -374 -45
-32 7 -67 -17 -58 -40 8 -20 51 -21 222 -1 347 40 681 132 1033 284 313 136
561 285 759 457 46 41 87 74 91 74 13 0 -126 -134 -208 -200 -115 -91 -293
-206 -417 -269 -146 -73 -270 -121 -486 -187 -179 -56 -218 -74 -161 -74 15 0
63 -16 108 -35 118 -50 248 -69 326 -46 20 6 12 9 -38 15 -58 7 -211 71 -199
82 3 3 51 -4 107 -16 187 -38 353 -26 465 33 l40 22 -100 6 c-88 5 -170 25
-197 48 -4 3 51 4 123 2 151 -4 232 8 343 51 75 29 286 161 286 179 0 4 -19 1
-42 -7 -24 -9 -77 -17 -118 -20 -64 -3 -69 -2 -37 6 58 15 172 67 236 108 57
37 209 178 200 186 -3 3 -27 -1 -54 -9 -26 -8 -69 -15 -94 -14 l-46 0 60 18
c120 35 178 78 247 186 49 76 122 215 145 280 23 61 62 215 54 214 -3 0 -25
-13 -49 -29z"/>
<path d="M3384 597 c-2 -7 -3 -105 -2 -217 l3 -205 48 -3 47 -3 0 220 0 221
-45 0 c-28 0 -48 -5 -51 -13z"/>
<path d="M2399 585 c-87 -28 -139 -106 -139 -210 0 -111 45 -172 149 -202 31
-8 75 -29 99 -45 104 -71 182 -82 182 -25 0 19 -9 28 -42 41 -24 9 -52 23 -62
31 -19 15 -19 16 12 48 17 17 38 49 46 69 19 44 21 131 5 179 -33 97 -144 147
-250 114z m132 -94 c26 -26 29 -36 29 -94 0 -109 -31 -157 -100 -157 -66 0
-100 47 -100 139 0 93 34 141 101 141 31 0 47 -6 70 -29z"/>
<path d="M2720 350 c0 -67 5 -130 10 -141 13 -23 61 -49 92 -49 13 0 40 8 60
19 30 15 38 16 42 5 3 -8 20 -14 41 -14 l36 0 -3 148 -3 147 -42 3 -43 3 0
-100 c0 -108 -10 -131 -54 -131 -37 0 -45 20 -48 126 l-3 99 -42 3 -43 3 0
-121z"/>
<path d="M3030 463 c0 -13 93 -248 103 -260 13 -18 -18 -63 -54 -76 -32 -13
-34 -20 -18 -65 10 -28 12 -30 40 -20 47 16 111 97 148 189 34 84 91 232 91
237 0 1 -22 2 -48 2 l-49 0 -23 -87 c-29 -111 -35 -124 -44 -87 -4 16 -16 62
-28 102 l-21 72 -48 0 c-27 0 -49 -3 -49 -7z"/>
<path d="M3560 260 c-38 -38 -18 -90 35 -90 54 0 76 64 33 94 -30 21 -44 20
-68 -4z"/>
</g>
</svg>
