<svg xmlns="http://www.w3.org/2000/svg" version="1.1" style="background: transparent;" viewBox="102.44 272 739.78 450.51">

<path d="M0 0 C0.33 0 0.66 0 1 0 C2.28733605 15.2692359 -2.26301736 31.32548966 -7.19580078 45.65087891 C-8.12970727 48.37888382 -9.03043721 51.11713312 -9.93359375 53.85546875 C-27.85861046 107.58543996 -55.56061935 178.05348458 -108.6875 205.1875 C-123.14138749 212.28884297 -138.06541397 216.83273117 -154 219 C-132.72048024 219.55489521 -113.73756487 218.45253084 -94.69433594 208.24902344 C-93.15830935 207.44207465 -91.5813626 206.71402827 -90 206 C-89.34 206.33 -88.68 206.66 -88 207 C-97.00823754 219.03058629 -106.50140574 230.24895198 -117 241 C-117.54430664 241.56477051 -118.08861328 242.12954102 -118.64941406 242.71142578 C-125.3583393 249.67167608 -132.32217632 256.10254123 -140 262 C-140.56058105 262.4316748 -141.12116211 262.86334961 -141.69873047 263.30810547 C-170.74117958 285.53374501 -207.15749193 305.10061046 -244 309 C-231.48743821 309.23725686 -219.3672811 309.13740223 -207 307 C-206.34628418 306.8870459 -205.69256836 306.7740918 -205.01904297 306.65771484 C-189.9548127 303.94157195 -175.48612015 298.83593068 -161 294 C-162.23854511 297.71563534 -163.69017178 298.59458591 -166.75 301 C-167.7503125 301.79664063 -168.750625 302.59328125 -169.78125 303.4140625 C-170.31105469 303.8359082 -170.84085938 304.25775391 -171.38671875 304.69238281 C-173.51608791 306.41830612 -175.58550371 308.2087188 -177.65820312 310.00195312 C-199.52543307 328.86411589 -224.49440493 344.53793807 -251 356 C-251.64243652 356.28439941 -252.28487305 356.56879883 -252.94677734 356.86181641 C-283.12158732 370.06927408 -315.45563737 374.18125784 -348.05737305 374.24023438 C-351.29567062 374.24994951 -354.53333452 374.28107357 -357.77148438 374.3125 C-368.69893737 374.36641887 -379.0559579 373.9431776 -389.75854492 371.64746094 C-393.10283832 370.86941689 -393.10283832 370.86941689 -397 371 C-365.86625247 384.39484253 -338.93381512 391.7832834 -305.00439453 385.36376953 C-302.01380087 384.82101867 -299.01159027 384.40868748 -296 384 C-317.31993681 406.58568444 -352.92765652 415.51331853 -382.78515625 416.41796875 C-414.09900122 417.14693588 -443.21859627 412.11248407 -473.51098633 404.56323242 C-475.89978932 403.92643094 -475.89978932 403.92643094 -478 404 C-456.75991436 418.80931736 -437.27014727 428.45734208 -411 429.5625 C-410.03449219 429.60568359 -409.06898438 429.64886719 -408.07421875 429.69335938 C-405.71625575 429.79841713 -403.35820584 429.90056914 -401 430 C-401.33 430.66 -401.66 431.32 -402 432 C-404.42003263 432.78208372 -406.78666983 433.45246626 -409.25 434.0625 C-409.91902344 434.23587891 -410.58804687 434.40925781 -411.27734375 434.58789062 C-417.52205171 436.1889405 -423.24407753 437.16857697 -429.6953125 437.23828125 C-430.43625153 437.2480751 -431.17719055 437.25786896 -431.94058228 437.26795959 C-462.77631455 437.59167052 -462.77631455 437.59167052 -477 433 C-478.22074219 432.62230469 -479.44148438 432.24460937 -480.69921875 431.85546875 C-487.29231492 429.57509797 -493.5583432 426.76020914 -499.87109375 423.79296875 C-500.48474289 423.50470718 -501.09839203 423.21644562 -501.7306366 422.91944885 C-504.82295099 421.46373245 -507.90654498 419.99307118 -510.97827148 418.49438477 C-520.36331355 414.00417011 -528.64424594 411.99719962 -538.96875 411.34375 C-541 411 -541 411 -543 409 C-531.02568364 404.06847234 -518.9403669 399.46355869 -506.80380249 394.95037842 C-477.21919474 383.94068882 -447.78404495 372.54744482 -419.07177734 359.40576172 C-415.91281744 357.96010196 -412.74792877 356.5280519 -409.58203125 355.09765625 C-398.26464574 349.96919296 -387.01600361 344.74982749 -376 339 C-375.02144043 338.49017578 -374.04288086 337.98035156 -373.03466797 337.45507812 C-342.98599886 321.73250798 -313.74588763 304.53082861 -286 285 C-285.40912598 284.58540527 -284.81825195 284.17081055 -284.20947266 283.74365234 C-259.51965081 266.3871685 -236.05839375 247.66097813 -213.6875 227.40625 C-212.25974908 226.12791488 -210.827575 224.85389589 -209.36547852 223.61499023 C-203.15899677 218.32177702 -197.42597869 212.57753483 -191.67260742 206.80297852 C-189.941053 205.066064 -188.20421641 203.33456111 -186.46679688 201.60351562 C-180.76444813 195.90504849 -175.19720866 190.16951872 -170 184 C-168.9216621 182.75296358 -167.84223738 181.50686611 -166.76171875 180.26171875 C-165.73656239 179.0706711 -164.71181877 177.87926807 -163.6875 176.6875 C-163.16349609 176.08099609 -162.63949219 175.47449219 -162.09960938 174.84960938 C-161.59623047 174.26373047 -161.09285156 173.67785156 -160.57421875 173.07421875 C-159.90265747 172.29437622 -159.90265747 172.29437622 -159.2175293 171.4987793 C-158.0550669 170.06778739 -157.02267472 168.53401208 -156 167 C-157.16402344 168.17187866 -157.16402344 168.17187866 -158.3515625 169.36743164 C-161.26381553 172.29794608 -164.17950911 175.2250175 -167.09619141 178.15112305 C-168.3519982 179.41192215 -169.60690164 180.67362176 -170.86083984 181.9362793 C-177.39370599 188.51339195 -183.89435473 195.03465589 -191 201 C-192.20353783 202.044903 -193.40535815 203.09178748 -194.60546875 204.140625 C-197.77046283 206.89066678 -200.94151251 209.63364926 -204.11572266 212.37304688 C-205.30403282 213.39907679 -206.49134662 214.42626286 -207.67724609 215.45507812 C-216.18646963 222.82886444 -225.025797 229.69913501 -234.00878906 236.48486328 C-235.78690961 237.83785692 -237.54977181 239.20697019 -239.3046875 240.58984375 C-246.38559543 246.14826639 -253.68233428 251.27827819 -261.13452148 256.32421875 C-265.29588874 259.14260498 -269.40892766 261.99284521 -273.4375 265 C-304.13056712 287.50513001 -338.4221705 306.45386328 -371.92480469 324.34912109 C-374.95086271 325.97362128 -377.96480384 327.61869573 -380.9765625 329.26953125 C-413.63625326 347.08784025 -447.05648348 363.76713992 -481 379 C-482.96489976 379.89571048 -484.92974353 380.79154378 -486.89453125 381.6875 C-512.82980406 393.40886282 -539.47573741 403.50439508 -566.25 413.125 C-567.11261444 413.43683228 -567.97522888 413.74866455 -568.86398315 414.06994629 C-579.84910603 418.03049638 -590.86740777 421.50310906 -602.15222168 424.50408936 C-604.49618127 425.13316618 -606.82710912 425.80263947 -609.15625 426.484375 C-614.42812328 428.02322105 -619.71210081 429.5172093 -625 431 C-626.21187988 431.3407959 -627.42375977 431.6815918 -628.67236328 432.03271484 C-649.3410179 437.81666909 -670.07304207 442.52340615 -691.19824219 446.31591797 C-694.40897651 446.89365221 -697.61476687 447.49206147 -700.8203125 448.09765625 C-708.66828845 449.52547755 -716.39504739 450.29252036 -724.375 450.4375 C-725.16720947 450.45997803 -725.95941895 450.48245605 -726.77563477 450.50561523 C-730.67814073 450.48908458 -732.59762706 450.24697013 -736.00390625 448.15625 C-738 446 -738 446 -738.5625 443.0625 C-737.85604272 439.21623259 -736.8354814 437.69007209 -734 435 C-727.83585009 431.58550418 -722.43687407 431.68592033 -715.5 431.6875 C-662.42760886 430.63667424 -603.81848571 408.99993239 -556 387 C-554.93910156 386.51289551 -553.87820313 386.02579102 -552.78515625 385.52392578 C-539.20402037 379.24002626 -525.92543446 372.54147337 -513 365 C-512.18160645 364.525625 -511.36321289 364.05125 -510.52001953 363.5625 C-495.18305099 354.64086255 -480.97072868 345.09930904 -467.61230469 333.4074707 C-466.48374536 332.42228831 -465.34837648 331.44487713 -464.20800781 330.47338867 C-458.37939898 325.46934704 -452.93224827 320.11585139 -447.5 314.6875 C-446.60152344 313.80126953 -445.70304687 312.91503906 -444.77734375 312.00195312 C-439.06753851 306.30461471 -433.91022541 300.3951215 -429 294 C-428.16435632 292.94794914 -427.32737219 291.89695971 -426.48828125 290.84765625 C-420.73066233 283.47749056 -415.40587826 275.86786235 -410.20239258 268.09594727 C-409.67025146 267.30502686 -409.13811035 266.51410645 -408.58984375 265.69921875 C-408.11409912 264.98596436 -407.63835449 264.27270996 -407.14819336 263.5378418 C-406.76928955 263.030354 -406.39038574 262.52286621 -406 262 C-405.67 262 -405.34 262 -405 262 C-404.10692896 277.47989808 -411.75580359 291.29838813 -418 305 C-408.49141757 291.27498371 -399.89605229 277.52678778 -392.08203125 262.765625 C-381.61968053 243.03530103 -369.56840709 225.057467 -354 209 C-353.19175781 208.15308594 -353.19175781 208.15308594 -352.3671875 207.2890625 C-344.46168788 199.02258116 -336.28039994 191.69052089 -327 185 C-327 188.59238041 -328.00942179 190.32252744 -329.5625 193.5625 C-336.9821675 210.21216252 -340.29829021 228.45538702 -343.4375 246.3125 C-343.56914551 247.059552 -343.70079102 247.806604 -343.83642578 248.57629395 C-345.55321949 257.72857005 -345.55321949 257.72857005 -346 267 C-345.64808594 265.76507812 -345.29617188 264.53015625 -344.93359375 263.2578125 C-332.29686085 219.59653103 -311.09720958 170.49691074 -275 141 C-274.46600586 140.55897949 -273.93201172 140.11795898 -273.38183594 139.66357422 C-265.21570147 132.93395117 -256.94961624 126.66642369 -248 121 C-247.34 121.33 -246.68 121.66 -246 122 C-246.43699219 122.82564453 -246.43699219 122.82564453 -246.8828125 123.66796875 C-259.31541057 148.88503088 -261.9119434 179.32545883 -264 207 C-263.83886719 206.25363281 -263.67773438 205.50726563 -263.51171875 204.73828125 C-255.53215205 171.57202534 -241.21061102 132.45306349 -217 108 C-215.84951172 106.75863281 -215.84951172 106.75863281 -214.67578125 105.4921875 C-198.38924497 88.29316277 -177.25545409 76.05980714 -156.02490234 65.97412109 C-153.92536758 64.96409653 -151.84758678 63.91672355 -149.76953125 62.86328125 C-124.38752007 50.18063601 -96.54937492 42.12137899 -69.29199219 34.48364258 C-63.8691746 32.94046203 -58.66638317 31.1569097 -53.45654297 29.00219727 C-50.99870624 27.99947218 -48.52373761 27.07781287 -46.02734375 26.17578125 C-28.91032449 19.94460025 -13.05952083 13.05952083 0 0 Z " fill="#080A09" transform="translate(841,272)"/>
<path d="M0 0 C0 4.34939359 -2.69585757 6.22254847 -5.5625 9.1875 C-6.67522703 10.36387638 -7.78721025 11.54095679 -8.8984375 12.71875 C-9.43694336 13.2859375 -9.97544922 13.853125 -10.53027344 14.4375 C-12.29623085 16.3149298 -14.00164058 18.23797536 -15.6875 20.1875 C-19.72349178 24.85286674 -23.86407555 29.42328542 -28 34 C-28.99 33.67 -29.98 33.34 -31 33 C-33.16715557 33.87483915 -33.16715557 33.87483915 -35 35 C-32.38509213 31.6496493 -29.78839462 28.73224725 -26.53125 26 C-20.90878222 21.13890806 -15.72912395 15.83682023 -10.5 10.5625 C-9.47679861 9.5342702 -8.45336267 8.50627374 -7.4296875 7.47851562 C-4.95042001 4.98835662 -2.47432462 2.49507167 0 0 Z " fill="#E7E8E7" transform="translate(686,437)"/>
<path d="M0 0 C0 4.39895123 -2.79621101 6.36507664 -5.6875 9.375 C-6.48317383 10.22191406 -6.48317383 10.22191406 -7.29492188 11.0859375 C-8.34939958 12.20381325 -9.41038828 13.3155857 -10.47802734 14.42089844 C-11.88491714 15.88059737 -13.26597103 17.36507954 -14.64453125 18.8515625 C-17.00783025 21.00714202 -17.9918145 21.40621137 -21 22 C-16.61557474 16.74825074 -11.99157907 11.86777527 -7.125 7.0625 C-6.43664062 6.37865234 -5.74828125 5.69480469 -5.0390625 4.99023438 C-3.36166489 3.32448536 -1.68196209 1.6611378 0 0 Z " fill="#E9EAE9" transform="translate(686,437)"/>
<path d="M0 0 C-8.58 0 -17.16 0 -26 0 C-26 -0.33 -26 -0.66 -26 -1 C-23.08483516 -1.53084792 -20.16839443 -2.04999055 -17.25 -2.5625 C-16.425 -2.71396484 -15.6 -2.86542969 -14.75 -3.02148438 C-13.95078125 -3.16005859 -13.1515625 -3.29863281 -12.328125 -3.44140625 C-11.5949707 -3.57232666 -10.86181641 -3.70324707 -10.10644531 -3.83813477 C-5.49137005 -4.19277024 -3.8009712 -2.8507284 0 0 Z " fill="#CBCCCA" transform="translate(618,582)"/>
<path d="M0 0 C4.29 0 8.58 0 13 0 C12.67 0.66 12.34 1.32 12 2 C9.78515625 2.66796875 9.78515625 2.66796875 7.0625 3.1875 C6.16660156 3.36667969 5.27070313 3.54585937 4.34765625 3.73046875 C2 4 2 4 0 3 C0 2.01 0 1.02 0 0 Z " fill="#2E302F" transform="translate(427,702)"/>
<path d="M0 0 C0 4.38968456 -2.12805101 5.76905739 -5 9 C-5.99 8.01 -6.98 7.02 -8 6 C-5.51047079 3.33264727 -3.36591866 1.44253657 0 0 Z " fill="#EEEFED" transform="translate(668,457)"/>
<path d="M0 0 C0 4.13781054 -1.71509607 5.20919996 -4.5 8.1875 C-5.3353125 9.08855469 -6.170625 9.98960937 -7.03125 10.91796875 C-7.6809375 11.60503906 -8.330625 12.29210937 -9 13 C-9.66 12.34 -10.32 11.68 -11 11 C-7.37 7.37 -3.74 3.74 0 0 Z " fill="#CBCCCA" transform="translate(686,437)"/>
<path d="M0 0 C0.33 0.66 0.66 1.32 1 2 C1.66 2.33 2.32 2.66 3 3 C1.515 8.445 1.515 8.445 0 14 C-0.33 14 -0.66 14 -1 14 C-1.08333357 9.1666528 -0.95261487 4.76307437 0 0 Z " fill="#C0C1C0" transform="translate(495,528)"/>
<path d="M0 0 C0 0.99 0 1.98 0 3 C-3 5.1875 -3 5.1875 -6 7 C-6.33 6.01 -6.66 5.02 -7 4 C-7.66 3.67 -8.32 3.34 -9 3 C-6.03 2.01 -3.06 1.02 0 0 Z " fill="#313332" transform="translate(679,566)"/>
<path d="M0 0 C0.33 1.32 0.66 2.64 1 4 C-1.875 4.125 -1.875 4.125 -5 4 C-5.66 3.34 -6.32 2.68 -7 2 C-4.35261084 0.5393715 -3.10551666 0 0 0 Z " fill="#2C2C2C" transform="translate(305,679)"/>
<path d="M0 0 C0.66 0.33 1.32 0.66 2 1 C-0.475 4.465 -0.475 4.465 -3 8 C-3.66 6.68 -4.32 5.36 -5 4 C-3.35 2.68 -1.7 1.36 0 0 Z " fill="#343433" transform="translate(751,478)"/>
</svg>